<svg width="310" height="317" viewBox="0 0 310 317" fill="none" xmlns="http://www.w3.org/2000/svg">
<path d="M299.59 229.32C283.042 262.211 255.54 288.301 221.823 303.095C188.106 317.889 150.285 320.46 114.876 310.367C79.4672 300.273 48.6876 278.146 27.8391 247.797C6.99068 217.449 -2.6207 180.78 0.660903 144.107C3.94251 107.434 19.9113 73.0531 45.8167 46.8884C71.7221 20.7236 105.942 4.41292 142.58 0.766161C179.219 -2.8806 215.982 6.36496 246.537 26.9101C277.091 47.4552 299.524 78.0133 309.97 113.32C292.11 119.52 271.97 131.82 253.19 149.04C213.55 185.42 195.27 230.04 212.36 248.61C227.26 264.86 264.12 255.98 299.59 229.32Z" fill="#002EEF"/>
</svg>
